<?xml version="1.0" encoding="iso-8859-1"?>
<!-- Generator: Adobe Illustrator 19.0.0, SVG Export Plug-In . SVG Version: 6.00 Build 0)  -->
<svg xmlns="http://www.w3.org/2000/svg" xmlns:xlink="http://www.w3.org/1999/xlink" version="1.1" id="Capa_1" x="0px" y="0px" viewBox="0 0 455.001 455.001" style="enable-background:new 0 0 455.001 455.001;" xml:space="preserve" width="512" height="512">
<g>
	<path style="fill:#98D9D5;" d="M91.924,0.001L0.001,91.924l363.076,363.076l91.924-91.924L91.924,0.001z M67.176,88.389   c-5.858-5.858-5.858-15.355,0-21.213c5.858-5.858,15.355-5.858,21.213,0c5.858,5.858,5.858,15.355,0,21.213   C82.531,94.247,73.034,94.247,67.176,88.389z M366.612,387.825c-5.858-5.858-5.858-15.355,0-21.213   c5.858-5.858,15.355-5.858,21.213,0c5.858,5.858,5.858,15.355,0,21.213C381.968,393.683,372.47,393.683,366.612,387.825z"/>
	<path style="fill:#6DA8D6;" d="M183.306,147.951c-2.929,2.929-2.929,7.677,0,10.607s7.677,2.929,10.607,0l28.284-28.284   l-10.607-10.607L183.306,147.951z"/>
	<path style="fill:#6DA8D6;" d="M121.977,86.621c-2.929,2.929-2.929,7.677,0,10.607s7.677,2.929,10.607,0l28.284-28.284   l-10.607-10.607L121.977,86.621z"/>
	<path style="fill:#6DA8D6;" d="M152.641,117.286c-2.929,2.929-2.929,7.677,0,10.607c2.929,2.929,7.677,2.929,10.607,0   l28.284-28.284l-10.607-10.607L152.641,117.286z"/>
	<path style="fill:#6DA8D6;" d="M296.443,261.088c-2.929,2.929-2.929,7.677,0,10.607c2.929,2.929,7.677,2.929,10.607,0   l28.284-28.284l-10.607-10.607L296.443,261.088z"/>
	<path style="fill:#6DA8D6;" d="M386.058,294.134l-28.284,28.284c-2.929,2.929-2.929,7.677,0,10.607   c2.929,2.929,7.677,2.929,10.607,0l28.284-28.284L386.058,294.134z"/>
	<path style="fill:#6DA8D6;" d="M327.109,291.753c-2.929,2.929-2.929,7.677,0,10.607c2.929,2.929,7.677,2.929,10.607,0L366,274.076   l-10.607-10.607L327.109,291.753z"/>
	<path style="fill:#F2484B;" d="M446.251,37.035L417.966,8.75c-11.667-11.667-30.759-11.667-42.426,0l-35.356,35.356l28.284,42.426   l42.426,28.284l35.356-35.356C457.918,67.794,457.918,48.702,446.251,37.035z"/>
	<polygon style="fill:#6DA8D6;" points="313.833,70.457 49.545,334.745 70.711,384.29 363.331,105.813  "/>
	<polygon style="fill:#185F8D;" points="356.26,98.742 70.711,384.29 120.256,405.456 384.544,141.169  "/>
	<polygon style="fill:#274B6D;" points="0,455.001 50.087,434.377 42.426,412.575 20.624,404.914  "/>
	<path style="fill:#FFCC75;" d="M120.256,405.456c-1.681-6.258-5.065-12.306-10.129-17.37c-9.101-9.101-21.373-12.795-32.345-10.867   c1.928-10.972-1.766-23.244-10.867-32.345c-5.064-5.064-11.112-8.448-17.37-10.129l-0.048,0.048l-28.874,70.121l29.463,29.463   l70.121-28.874L120.256,405.456z"/>
	
		<rect x="343.731" y="42.638" transform="matrix(0.7071 -0.7071 0.7071 0.7071 40.6282 283.3614)" style="fill:#F2EBD9;" width="37.266" height="100"/>
</g>















</svg>
